<?xml version="1.0" standalone="no"?>
<!DOCTYPE svg PUBLIC "-//W3C//DTD SVG 20010904//EN"
 "http://www.w3.org/TR/2001/REC-SVG-20010904/DTD/svg10.dtd">
<svg version="1.0" xmlns="http://www.w3.org/2000/svg"
 width="1080.000000pt" height="1080.000000pt" viewBox="0 0 1080.000000 1080.000000"
 preserveAspectRatio="xMidYMid meet">
<metadata>
Created by potrace 1.14, written by Peter Selinger 2001-2017
</metadata>
<g transform="translate(0.000000,1080.000000) scale(0.100000,-0.100000)"
fill="#000000" stroke="none">
<path d="M5138 10395 c-2 -1 -50 -6 -108 -9 -58 -4 -118 -9 -135 -11 -16 -2
-73 -9 -125 -16 -52 -6 -104 -13 -115 -14 -11 -2 -38 -6 -60 -10 -73 -11 -89
-14 -255 -50 -178 -38 -257 -59 -390 -99 -47 -15 -92 -28 -100 -31 -21 -5
-141 -48 -225 -79 -321 -121 -709 -321 -1005 -519 -93 -63 -328 -235 -356
-262 -6 -5 -28 -23 -49 -40 -21 -16 -48 -39 -59 -50 -12 -11 -57 -51 -101 -90
-157 -138 -372 -362 -501 -521 -31 -38 -64 -79 -74 -91 -41 -48 -190 -252
-225 -308 -21 -33 -41 -62 -45 -65 -16 -12 -198 -329 -265 -461 -139 -274
-270 -601 -341 -849 -21 -74 -88 -340 -99 -395 -20 -96 -62 -356 -70 -435 -4
-36 -9 -78 -11 -95 -26 -231 -26 -781 1 -1000 2 -16 6 -56 9 -87 4 -31 8 -63
10 -70 3 -7 7 -42 11 -77 3 -36 8 -67 10 -71 2 -3 6 -24 9 -46 2 -21 9 -59 14
-84 6 -25 13 -61 16 -80 3 -19 26 -114 51 -210 25 -96 47 -184 50 -194 36
-150 188 -533 310 -781 306 -624 714 -1148 1250 -1606 401 -344 900 -643 1400
-841 55 -22 105 -40 110 -42 6 -1 15 -4 20 -8 6 -3 73 -26 150 -51 183 -60
401 -116 630 -163 10 -2 37 -6 60 -9 22 -3 47 -8 55 -10 8 -2 53 -9 100 -15
47 -5 96 -12 110 -14 28 -5 101 -12 230 -23 176 -15 758 -7 870 12 14 2 52 6
85 10 55 5 163 20 225 31 14 2 52 9 85 14 102 17 115 20 305 66 562 138 1133
392 1610 718 80 54 325 238 375 281 277 237 452 412 651 650 593 710 954 1511
1109 2460 2 11 6 41 9 68 3 26 8 66 11 90 36 285 41 839 10 1092 -2 17 -7 57
-11 90 -3 33 -8 67 -9 75 -2 8 -6 38 -9 65 -27 210 -113 576 -194 820 -100
303 -262 671 -396 898 -31 53 -56 99 -56 102 0 3 -8 18 -19 33 -10 15 -61 92
-114 172 -403 614 -954 1142 -1602 1531 -215 130 -430 236 -750 370 -97 40
-457 157 -537 174 -9 2 -43 11 -75 19 -50 13 -182 42 -278 61 -134 26 -392 60
-540 71 -62 5 -642 13 -647 9z"/>
</g>
</svg>
